<svg width="20" height="20" viewBox="0 0 20 20" fill="none" xmlns="http://www.w3.org/2000/svg">
<path d="M18.9226 9.40906L13.0893 3.57573C12.9321 3.42393 12.7216 3.33993 12.5031 3.34183C12.2846 3.34373 12.0756 3.43137 11.9211 3.58588C11.7666 3.74038 11.679 3.94939 11.6771 4.16789C11.6752 4.38639 11.7592 4.59689 11.911 4.75406L16.3218 9.16489H1.66683C1.44581 9.16489 1.23385 9.25269 1.07757 9.40897C0.921293 9.56525 0.833496 9.77721 0.833496 9.99823C0.833496 10.2192 0.921293 10.4312 1.07757 10.5875C1.23385 10.7438 1.44581 10.8316 1.66683 10.8316H16.3218L11.911 15.2424C11.8314 15.3193 11.7679 15.4112 11.7242 15.5129C11.6805 15.6146 11.6576 15.7239 11.6566 15.8346C11.6556 15.9452 11.6767 16.055 11.7186 16.1574C11.7605 16.2598 11.8224 16.3528 11.9006 16.4311C11.9789 16.5093 12.0719 16.5712 12.1743 16.6131C12.2768 16.655 12.3865 16.6761 12.4971 16.6751C12.6078 16.6741 12.7171 16.6512 12.8188 16.6075C12.9205 16.5638 13.0124 16.5003 13.0893 16.4207L18.9226 10.5874C19.0789 10.4311 19.1666 10.2192 19.1666 9.99823C19.1666 9.77726 19.0789 9.56533 18.9226 9.40906Z" fill="#828282"/>
</svg>
