<svg width="161" height="57" viewBox="0 0 161 57" fill="none" xmlns="http://www.w3.org/2000/svg">
<circle cx="28.7663" cy="28.5464" r="27.9526" fill="#FF6D00"/>
<path d="M41.4377 16.8359C39.9476 16.8359 38.7353 18.0482 38.7353 19.5384V20.5942C38.4534 20.4942 38.1502 20.4392 37.8345 20.4392C36.3443 20.4392 35.132 21.6515 35.132 23.1416V25.9992C34.7646 26.1285 34.4197 26.3392 34.126 26.6317L31.3022 29.3954C31.3 29.3976 31.2975 29.3999 31.2954 29.4022C30.2024 30.4952 29.3483 31.7734 28.7569 33.2013C28.7542 33.208 28.7516 33.2145 28.7489 33.2212C28.1538 31.8132 27.2831 30.5081 26.1772 29.4022L23.4105 26.6357C23.1205 26.3456 22.7762 26.1299 22.4006 25.9975V23.1416C22.4006 21.6515 21.1883 20.4392 19.6982 20.4392C19.3824 20.4392 19.0793 20.4942 18.7973 20.5942V19.5384C18.7973 18.0482 17.585 16.8359 16.0949 16.8359C14.6048 16.8359 13.3925 18.0482 13.3925 19.5384V29.3501C13.3925 30.1662 13.6145 30.9675 14.0343 31.6674L17.0719 36.73C18.2232 38.649 18.8574 40.8828 18.8574 43.0197C18.8574 43.5171 19.2608 43.9205 19.7582 43.9205H28.7664H37.7745C38.272 43.9205 38.6754 43.5171 38.6754 43.0197C38.6754 40.8828 39.3094 38.6491 40.4609 36.73L43.4986 31.6674C43.9185 30.9676 44.1403 30.1662 44.1403 29.3501V19.5384C44.1401 18.0482 42.9277 16.8359 41.4377 16.8359ZM18.7972 23.1416C18.7972 22.6449 19.2013 22.2408 19.698 22.2408C20.1947 22.2408 20.5988 22.6449 20.5988 23.1416V25.9975C20.2233 26.13 19.879 26.3458 19.5889 26.6357C19.3656 26.859 19.1898 27.1117 19.0611 27.3815C18.8909 27.2114 18.7972 26.9852 18.7972 26.7445C18.7972 26.3627 18.7972 23.5236 18.7972 23.1416ZM27.8654 42.1187H20.627C20.4737 39.9429 19.7734 37.731 18.6167 35.8031L15.5792 30.7405C15.3272 30.3206 15.1941 29.8398 15.1941 29.3501V19.5384C15.1941 19.0417 15.5982 18.6376 16.0949 18.6376C16.5916 18.6376 16.9957 19.0417 16.9957 19.5384C16.9957 19.8479 16.9957 26.4539 16.9957 26.7446V26.7469C16.9957 26.7476 16.9959 26.7483 16.9959 26.749C16.997 27.4693 17.2779 28.1461 17.7873 28.6556L22.6645 33.5328C23.0162 33.8845 23.5866 33.8845 23.9385 33.5328C24.2903 33.181 24.2903 32.6107 23.9385 32.2589L20.863 29.1834C20.5119 28.8323 20.5119 28.2609 20.863 27.9098C21.2153 27.5575 21.7844 27.5575 22.1367 27.9098L24.9033 30.6764C26.7859 32.559 27.8657 35.1129 27.8657 37.6831V42.1187H27.8654ZM36.9337 23.1416C36.9337 22.6449 37.3378 22.2408 37.8345 22.2408C38.3312 22.2408 38.7353 22.6449 38.7353 23.1416C38.7353 23.5229 38.7353 26.3627 38.7353 26.7446C38.7353 26.9852 38.6417 27.2115 38.4715 27.3817L38.4714 27.3818C38.3427 27.1119 38.1669 26.8591 37.9436 26.636C37.649 26.3414 37.3027 26.1292 36.9337 25.9993V23.1416ZM42.3386 29.3501C42.3386 29.8397 42.2053 30.3205 41.9535 30.7405L38.916 35.8031C37.7592 37.7311 37.0589 39.9431 36.9055 42.1187H29.6672V37.6828C29.6672 35.0375 30.6967 32.5506 32.5662 30.6794L35.3891 27.9163C35.3914 27.914 35.3938 27.9118 35.3959 27.9095C35.7472 27.5582 36.3185 27.5582 36.6696 27.9095C37.0219 28.2617 37.0219 28.8309 36.6696 29.1832L33.5942 32.2586C33.2423 32.6104 33.2423 33.1807 33.5942 33.5326C33.9459 33.8844 34.5163 33.8844 34.8681 33.5326L39.7453 28.6553C40.2546 28.1461 40.5354 27.4694 40.5368 26.7494C40.5368 26.7487 40.5369 26.7479 40.5369 26.747V26.7445C40.5369 26.4576 40.5369 19.8497 40.5369 19.5382C40.5369 19.0415 40.941 18.6374 41.4377 18.6374C41.9345 18.6374 42.3386 19.0415 42.3386 19.5382V29.3501Z" fill="white"/>
<path d="M31.8842 13.1724C30.6446 13.1724 29.5684 13.74 28.766 14.8151C27.9635 13.74 26.8874 13.1724 25.6478 13.1724C23.3155 13.1724 21.6288 15.1075 21.6288 17.4581C21.6288 20.4638 24.462 22.3449 28.176 25.5638C28.3453 25.7105 28.5556 25.7839 28.766 25.7839C28.9763 25.7839 29.1867 25.7105 29.356 25.5638C33.0728 22.3426 35.9032 20.4628 35.9032 17.4581C35.9032 15.1059 34.2151 13.1724 31.8842 13.1724ZM28.766 23.6948C25.4893 20.8966 23.4304 19.4073 23.4304 17.458C23.4304 16.0418 24.3836 14.9739 25.6478 14.9739C27.2918 14.9739 27.8748 16.9357 27.899 17.0199C28.0083 17.408 28.3619 17.6784 28.7654 17.6784C29.1702 17.6784 29.5249 17.4103 29.633 17.0201C29.657 16.9366 30.2398 14.974 31.8842 14.974C33.1483 14.974 34.1016 16.0418 34.1016 17.4581C34.1016 19.4082 32.0409 20.898 28.766 23.6948Z" fill="#020D19"/>
<path d="M157.746 36.0099C157.076 36.0099 156.507 35.8049 156.041 35.3949C155.575 34.9849 155.343 34.3979 155.343 33.6339C155.343 32.8512 155.575 32.2363 156.041 31.789C156.526 31.3418 157.094 31.1182 157.746 31.1182C158.399 31.1182 158.958 31.3418 159.424 31.789C159.889 32.2176 160.122 32.8233 160.122 33.6059C160.122 34.3886 159.889 34.9849 159.424 35.3949C158.958 35.8049 158.399 36.0099 157.746 36.0099Z" fill="#FF6D00"/>
<path d="M144.631 42.439C143.494 42.439 142.385 42.29 141.304 41.9918C140.224 41.6936 139.208 41.1905 138.258 40.4824L139.571 37.3517C140.168 37.7989 140.848 38.153 141.612 38.4139C142.376 38.6934 143.224 38.8332 144.156 38.8332C145.59 38.8332 146.653 38.4977 147.342 37.8269C148.05 37.156 148.404 36.187 148.404 34.9198V34.1371C148.088 34.5657 147.687 34.9105 147.202 35.1714C146.737 35.4136 146.233 35.5906 145.693 35.7025C145.153 35.8143 144.612 35.8702 144.072 35.8702C142.655 35.8702 141.519 35.572 140.661 34.9757C139.804 34.3794 139.18 33.5687 138.789 32.5438C138.416 31.5003 138.23 30.3169 138.23 28.9938V20.9155H142.143V28.1832C142.143 28.6677 142.171 29.1522 142.227 29.6367C142.283 30.1213 142.413 30.5685 142.618 30.9785C142.823 31.3884 143.131 31.7239 143.541 31.9848C143.951 32.227 144.5 32.3481 145.19 32.3481C146.084 32.3481 146.755 32.1338 147.202 31.7052C147.65 31.258 147.948 30.6989 148.097 30.0281C148.265 29.3572 148.348 28.6584 148.348 27.9316V20.9155H152.262V33.5222C152.262 34.8639 152.131 36.0845 151.87 37.1839C151.628 38.2834 151.209 39.2245 150.613 40.0072C150.035 40.7898 149.252 41.3862 148.265 41.7961C147.296 42.2247 146.084 42.439 144.631 42.439Z" fill="white"/>
<path d="M132.335 35.8418C130.677 35.8418 129.447 35.3759 128.645 34.4441C127.863 33.5124 127.471 32.2359 127.471 30.6146V24.4091H125.263V20.9151H127.471V16.9458H131.385V20.9151H135.857V24.4091H131.385V29.804C131.385 30.2885 131.441 30.7078 131.553 31.0619C131.683 31.4159 131.888 31.6955 132.167 31.9004C132.466 32.0868 132.866 32.18 133.369 32.18C133.817 32.18 134.189 32.1148 134.488 31.9843C134.804 31.8352 135.065 31.6768 135.27 31.5091L136.5 34.528C136.109 34.8448 135.671 35.1057 135.186 35.3107C134.72 35.497 134.245 35.6275 133.761 35.702C133.276 35.7952 132.801 35.8418 132.335 35.8418Z" fill="white"/>
<path d="M119.31 35.6467V20.9157H123.223V35.6467H119.31ZM121.266 19.4342C120.54 19.4342 119.953 19.2199 119.505 18.7913C119.058 18.344 118.835 17.7757 118.835 17.0862C118.835 16.3594 119.068 15.7724 119.533 15.3252C119.999 14.8779 120.586 14.6543 121.294 14.6543C121.947 14.6543 122.506 14.8779 122.972 15.3252C123.456 15.7538 123.698 16.3315 123.698 17.0582C123.698 17.7664 123.465 18.344 123 18.7913C122.552 19.2199 121.975 19.4342 121.266 19.4342Z" fill="white"/>
<path d="M102.385 35.6467V20.9156H106.047L106.243 22.6207C106.653 22.1176 107.119 21.7263 107.641 21.4467C108.181 21.1486 108.721 20.9436 109.262 20.8318C109.821 20.72 110.324 20.6641 110.771 20.6641C112.188 20.6641 113.287 20.9715 114.07 21.5865C114.871 22.2015 115.439 23.0307 115.775 24.0743C116.129 25.0992 116.306 26.2453 116.306 27.5125V35.6467H112.393V28.0156C112.393 27.5684 112.355 27.1211 112.281 26.6739C112.206 26.2266 112.066 25.8167 111.861 25.444C111.675 25.0713 111.405 24.7731 111.051 24.5495C110.697 24.3259 110.231 24.214 109.653 24.214C108.908 24.214 108.284 24.4004 107.78 24.7731C107.277 25.1458 106.905 25.6489 106.662 26.2825C106.42 26.9161 106.299 27.6149 106.299 28.379V35.6467H102.385Z" fill="white"/>
<path d="M93.0438 35.8423C91.4971 35.8423 90.1833 35.5349 89.1025 34.9199C88.0216 34.3049 87.1924 33.4384 86.6147 32.3203C86.037 31.1836 85.7482 29.8605 85.7482 28.351C85.7482 26.823 86.0463 25.4905 86.6427 24.3538C87.239 23.1984 88.0776 22.2946 89.1584 21.6424C90.2579 20.9902 91.553 20.6641 93.0438 20.6641C94.1619 20.6641 95.1402 20.8504 95.9788 21.2231C96.836 21.5958 97.5535 22.1176 98.1312 22.7885C98.7275 23.4593 99.1654 24.242 99.445 25.1365C99.7431 26.0123 99.8829 26.9627 99.8642 27.9876C99.8642 28.2485 99.8549 28.5001 99.8363 28.7424C99.8177 28.9846 99.7804 29.2269 99.7245 29.4691H89.6336C89.6895 30.0282 89.8479 30.5407 90.1088 31.0065C90.3697 31.4724 90.7331 31.8451 91.1989 32.1246C91.6834 32.3855 92.2798 32.516 92.9879 32.516C93.4538 32.516 93.8824 32.4694 94.2737 32.3762C94.6651 32.2644 95.0005 32.0967 95.28 31.8731C95.5595 31.6494 95.7552 31.3885 95.867 31.0904H99.7245C99.4822 32.1899 99.0257 33.0937 98.3548 33.8018C97.7026 34.5099 96.9106 35.0317 95.9788 35.3671C95.0471 35.6839 94.0687 35.8423 93.0438 35.8423ZM89.7174 26.7298H96.1186C96.1 26.2266 95.9695 25.7608 95.7273 25.3321C95.5036 24.8849 95.1589 24.5308 94.693 24.27C94.2458 23.9904 93.6681 23.8507 92.9599 23.8507C92.2518 23.8507 91.6555 23.9904 91.171 24.27C90.7051 24.5495 90.351 24.9129 90.1088 25.3601C89.8852 25.7887 89.7547 26.2453 89.7174 26.7298Z" fill="white"/>
<path d="M69.9965 35.6469V15.8564H73.9937V31.9572H84.0287V35.6469H69.9965Z" fill="white"/>
</svg>
