<svg width="180" height="180" viewBox="0 0 180 180" fill="none" xmlns="http://www.w3.org/2000/svg">
<g clip-path="url(#clip0_361_755)">
<g filter="url(#filter0_d_361_755)">
<path d="M89.9512 180C139.657 180 179.951 139.706 179.951 90C179.951 40.2944 139.657 0 89.9512 0C40.2455 0 -0.0488281 40.2944 -0.0488281 90C-0.0488281 139.706 40.2455 180 89.9512 180Z" fill="white"/>
</g>
<path d="M113.701 68.0488C110.908 68.0488 108.636 70.3211 108.636 73.1142V75.0931C108.107 74.9056 107.539 74.8026 106.947 74.8026C104.154 74.8026 101.882 77.0749 101.882 79.8679V85.224C101.193 85.466 100.547 85.861 99.9963 86.41L94.7043 91.59C94.6993 91.594 94.6953 91.598 94.6913 91.602C92.6423 93.651 91.0413 96.047 89.9333 98.723C89.9283 98.736 89.9233 98.748 89.9183 98.761C88.8023 96.121 87.1703 93.675 85.0983 91.602L79.9123 86.417C79.3683 85.873 78.7232 85.469 78.0193 85.221V79.8679C78.0193 77.0749 75.747 74.8026 72.9539 74.8026C72.3621 74.8026 71.794 74.9056 71.2655 75.0931V73.1142C71.2655 70.3211 68.9932 68.0488 66.2002 68.0488C63.4071 68.0488 61.1348 70.3211 61.1348 73.1142V91.505C61.1348 93.034 61.5509 94.536 62.3379 95.848L68.0313 105.337C70.1894 108.934 71.3781 113.121 71.3781 117.126C71.3781 118.059 72.1342 118.815 73.0665 118.815H89.9513H106.835C107.767 118.815 108.524 118.059 108.524 117.126C108.524 113.121 109.712 108.934 111.87 105.337L117.564 95.848C118.351 94.537 118.767 93.034 118.767 91.505V73.1142C118.766 70.3211 116.494 68.0488 113.701 68.0488ZM71.2652 79.8679C71.2652 78.9369 72.0226 78.1795 72.9537 78.1795C73.8847 78.1795 74.6421 78.9369 74.6421 79.8679V85.221C73.9382 85.469 73.2928 85.874 72.7492 86.417C72.3307 86.835 72.0011 87.309 71.7599 87.815C71.4409 87.496 71.2652 87.072 71.2652 86.621C71.2652 85.905 71.2652 80.584 71.2652 79.8679ZM88.2623 115.438H74.6948C74.4076 111.359 73.095 107.213 70.9268 103.6L65.2335 94.111C64.7612 93.324 64.5117 92.423 64.5117 91.505V73.1142C64.5117 72.1831 65.2691 71.4257 66.2002 71.4257C67.1312 71.4257 67.8886 72.1831 67.8886 73.1142C67.8886 73.6943 67.8886 86.076 67.8886 86.621V86.625C67.8886 86.627 67.8889 86.628 67.8889 86.629C67.891 87.979 68.4176 89.248 69.3723 90.203L78.5139 99.345C79.1733 100.004 80.2423 100.004 80.9013 99.345C81.5613 98.685 81.5613 97.616 80.9013 96.957L75.1373 91.192C74.4792 90.534 74.4792 89.463 75.1373 88.805C75.7976 88.145 76.8643 88.145 77.5246 88.805L82.7103 93.991C86.2393 97.519 88.2633 102.306 88.2633 107.124L88.2623 115.438ZM105.259 79.8679C105.259 78.9369 106.016 78.1795 106.947 78.1795C107.878 78.1795 108.636 78.9369 108.636 79.8679C108.636 80.582 108.636 85.905 108.636 86.621C108.636 87.072 108.46 87.496 108.142 87.815C107.901 87.31 107.57 86.836 107.152 86.418C106.6 85.865 105.951 85.468 105.259 85.224V79.8679ZM115.39 91.505C115.39 92.422 115.14 93.324 114.668 94.111L108.975 103.6C106.806 107.214 105.494 111.36 105.206 115.438H91.6393V107.123C91.6393 102.165 93.5693 97.504 97.0733 93.996L102.364 88.817C102.368 88.813 102.373 88.809 102.377 88.805C103.035 88.146 104.106 88.146 104.764 88.805C105.424 89.465 105.424 90.532 104.764 91.192L99.0003 96.956C98.3403 97.616 98.3403 98.685 99.0003 99.344C99.6593 100.004 100.728 100.004 101.387 99.344L110.529 90.203C111.484 89.248 112.01 87.98 112.013 86.63C112.013 86.629 112.013 86.627 112.013 86.626V86.621C112.013 86.083 112.013 73.6977 112.013 73.1139C112.013 72.1829 112.77 71.4254 113.701 71.4254C114.632 71.4254 115.39 72.1829 115.39 73.1139V91.505Z" fill="#020D19"/>
<path d="M95.7954 61.1836C93.4724 61.1836 91.4544 62.2475 89.9504 64.2626C88.4464 62.2475 86.4294 61.1836 84.1064 61.1836C79.7344 61.1836 76.5732 64.8107 76.5732 69.2166C76.5732 74.8503 81.8834 78.3761 88.8444 84.409C89.1624 84.684 89.5564 84.822 89.9504 84.822C90.3454 84.822 90.7394 84.684 91.0564 84.409C98.0234 78.3718 103.328 74.8485 103.328 69.2166C103.328 64.8078 100.164 61.1836 95.7954 61.1836ZM89.9504 80.906C83.8094 75.6616 79.9504 72.8701 79.9504 69.2163C79.9504 66.562 81.7364 64.5602 84.1064 64.5602C87.1874 64.5602 88.2804 68.2374 88.3254 68.3953C88.5304 69.1226 89.1934 69.6295 89.9494 69.6295C90.7084 69.6295 91.3734 69.1269 91.5754 68.3956C91.6204 68.239 92.7134 64.5605 95.7954 64.5605C98.1644 64.5605 99.9514 66.562 99.9514 69.2166C99.9514 72.8717 96.0894 75.6642 89.9504 80.906Z" fill="#FF6D00"/>
<path d="M92.0449 24.747L92.8849 14.8027L94.8939 14.9723L94.5459 19.0877L98.8439 19.4505L99.1909 15.3352L101.214 15.506L100.374 25.4502L98.3519 25.2794L98.6869 21.3046L94.3899 20.9417L94.0539 24.9166L92.0449 24.747Z" fill="#FF6D00"/>
<path d="M105.853 26.7522C105.094 26.5701 104.486 26.2646 104.029 25.8358C103.571 25.407 103.267 24.8845 103.115 24.2682C102.966 23.6429 102.98 22.9601 103.158 22.22C103.338 21.4707 103.641 20.8525 104.067 20.3654C104.495 19.8691 105.013 19.5247 105.62 19.3321C106.236 19.1418 106.909 19.1344 107.64 19.3099C108.188 19.4416 108.646 19.6481 109.013 19.9296C109.39 20.2133 109.68 20.5536 109.884 20.9506C110.098 21.3497 110.22 21.7851 110.252 22.2566C110.295 22.7211 110.252 23.2036 110.122 23.7039C110.091 23.8318 110.057 23.9541 110.019 24.0707C109.982 24.1873 109.935 24.3017 109.879 24.4139L104.931 23.2257C104.893 23.5064 104.91 23.7763 104.983 24.0355C105.056 24.2946 105.19 24.5202 105.386 24.7121C105.593 24.8971 105.87 25.0312 106.217 25.1146C106.445 25.1695 106.661 25.1971 106.864 25.1975C107.069 25.1887 107.253 25.146 107.417 25.0693C107.58 24.9925 107.707 24.8876 107.797 24.7546L109.688 25.2088C109.44 25.7194 109.109 26.1088 108.697 26.377C108.294 26.6474 107.844 26.81 107.348 26.8648C106.854 26.9104 106.355 26.8729 105.853 26.7522ZM105.295 21.8924L108.433 22.6461C108.484 22.3972 108.474 22.1534 108.406 21.9147C108.349 21.6691 108.222 21.4549 108.024 21.2721C107.838 21.0824 107.571 20.9459 107.224 20.8625C106.876 20.7791 106.568 20.7774 106.297 20.8574C106.036 20.9396 105.819 21.0761 105.648 21.2669C105.488 21.4507 105.37 21.6592 105.295 21.8924Z" fill="#FF6D00"/>
<path d="M113.193 28.9784C112.878 28.8567 112.586 28.699 112.318 28.5052C112.063 28.306 111.855 28.0748 111.694 27.8116C111.534 27.5483 111.439 27.2598 111.409 26.9461C111.378 26.6324 111.431 26.3001 111.566 25.9494C111.749 25.4759 111.99 25.136 112.291 24.9298C112.596 24.7147 112.939 24.5952 113.321 24.5712C113.703 24.5471 114.114 24.5899 114.555 24.6995C115.005 24.8125 115.458 24.9568 115.914 25.1325L116.914 25.5177C117.012 25.2634 117.05 25.0212 117.028 24.7912C117.018 24.5557 116.941 24.3499 116.797 24.1737C116.657 23.9888 116.442 23.8405 116.153 23.729C115.969 23.6581 115.779 23.6151 115.583 23.6001C115.4 23.5798 115.234 23.5915 115.086 23.6352C114.939 23.679 114.82 23.7642 114.731 23.891L112.863 23.1713C113.065 22.8057 113.314 22.5242 113.612 22.3268C113.913 22.1205 114.242 21.9854 114.599 21.9216C114.956 21.8577 115.32 21.8522 115.693 21.9051C116.077 21.9526 116.454 22.0473 116.822 22.1892C117.83 22.5778 118.464 23.1544 118.723 23.9189C118.986 24.6747 118.914 25.5787 118.509 26.6309L117.069 30.3663L115.412 29.7277L115.731 28.8231C115.393 29.0456 115.057 29.1729 114.722 29.205C114.397 29.2406 114.1 29.2269 113.832 29.164C113.564 29.101 113.351 29.0392 113.193 28.9784ZM114.177 27.6806C114.484 27.7989 114.788 27.8456 115.09 27.8208C115.391 27.7961 115.657 27.7072 115.887 27.5542C116.117 27.4012 116.283 27.1932 116.385 26.9301L116.45 26.7591L115.188 26.2726C115.004 26.2016 114.821 26.1411 114.638 26.091C114.465 26.0444 114.298 26.0203 114.138 26.0189C113.989 26.012 113.855 26.046 113.736 26.1208C113.616 26.1956 113.523 26.3207 113.455 26.4961C113.388 26.6715 113.374 26.8374 113.414 26.994C113.467 27.1451 113.56 27.2818 113.694 27.404C113.832 27.5174 113.993 27.6096 114.177 27.6806Z" fill="#FF6D00"/>
<path d="M118.596 31.1533L123.038 22.2168L124.805 23.0952L120.363 32.0316L118.596 31.1533Z" fill="#FF6D00"/>
<path d="M124.898 34.5835C124.362 34.2711 123.95 33.9435 123.66 33.6006C123.379 33.2625 123.235 32.8847 123.228 32.4674C123.234 32.0466 123.395 31.5643 123.712 31.0204L125.317 28.2684L124.367 27.7146L125.254 26.1925L126.204 26.7462L127.205 25.0293L128.91 26.0232L127.909 27.7401L129.309 28.5566L128.422 30.0787L127.022 29.2623L125.559 31.7708C125.403 32.0387 125.329 32.2781 125.336 32.4892C125.344 32.7002 125.518 32.9051 125.859 33.1039L126.395 33.4163L125.507 34.9384L124.898 34.5835Z" fill="#FF6D00"/>
<path d="M126.226 35.3553L132.121 27.3027L133.713 28.4684L131.698 31.2208C132.022 31.1438 132.332 31.1261 132.628 31.1677C132.931 31.215 133.209 31.2963 133.462 31.4118C133.729 31.5253 133.957 31.6514 134.146 31.7901C134.707 32.2009 135.055 32.6479 135.191 33.1313C135.326 33.6146 135.306 34.1186 135.132 34.6431C134.958 35.1676 134.685 35.6839 134.313 36.1919L131.89 39.5017L130.298 38.336L132.554 35.2538C132.687 35.0718 132.801 34.8759 132.897 34.6662C133 34.462 133.065 34.2536 133.092 34.0409C133.126 33.8206 133.1 33.6094 133.015 33.4074C132.935 33.1978 132.77 33.0015 132.52 32.8183C132.285 32.6462 132.048 32.5484 131.809 32.5249C131.57 32.5013 131.336 32.5341 131.108 32.6232C130.893 32.7103 130.691 32.8357 130.501 32.9996C130.311 33.1634 130.144 33.3439 130 33.541L127.818 36.5209L126.226 35.3553Z" fill="#FF6D00"/>
<path d="M135.512 42.9821C134.963 42.4553 134.599 41.8914 134.42 41.2903C134.248 40.6958 134.255 40.0975 134.442 39.4954C134.635 38.8865 134.999 38.304 135.532 37.7479C136.072 37.1849 136.645 36.7974 137.252 36.5853C137.866 36.3664 138.48 36.3302 139.094 36.4769C139.716 36.63 140.308 36.9764 140.871 37.5163C141.305 37.9325 141.617 38.3812 141.806 38.8624C141.996 39.3436 142.052 39.8276 141.976 40.3144C141.907 40.8077 141.684 41.2842 141.308 41.744L139.915 40.4075C140.081 40.1115 140.128 39.8248 140.056 39.5471C139.99 39.276 139.839 39.0266 139.602 38.799C139.296 38.5063 138.981 38.3468 138.654 38.3204C138.335 38.3005 138.024 38.3669 137.722 38.5194C137.426 38.6785 137.167 38.8733 136.946 39.1039C136.706 39.3549 136.519 39.6313 136.385 39.9332C136.259 40.2283 136.215 40.5316 136.255 40.8431C136.308 41.1544 136.48 41.4498 136.772 41.7295C137.016 41.9636 137.282 42.1142 137.569 42.1813C137.863 42.2416 138.151 42.1791 138.432 41.9937L139.857 43.3596C139.4 43.7679 138.917 44.0073 138.406 44.0779C137.896 44.1484 137.39 44.0859 136.887 43.8904C136.398 43.6946 135.94 43.3919 135.512 42.9821Z" fill="#FF6D00"/>
<path d="M140.663 48.5241C140.451 48.2605 140.277 47.9777 140.143 47.6758C140.022 47.3753 139.958 47.0709 139.951 46.7627C139.945 46.4546 140.007 46.1572 140.138 45.8707C140.27 45.5842 140.482 45.3231 140.775 45.0875C141.17 44.7695 141.55 44.5968 141.913 44.5694C142.285 44.5361 142.641 44.6049 142.984 44.7757C143.326 44.9465 143.661 45.19 143.987 45.5061C144.32 45.8295 144.639 46.1817 144.946 46.5624L145.617 47.3972C145.829 47.2264 145.984 47.0359 146.08 46.8258C146.19 46.6171 146.226 46.4005 146.191 46.1761C146.162 45.9458 146.051 45.7098 145.856 45.4681C145.733 45.3144 145.59 45.1819 145.428 45.0708C145.28 44.9611 145.131 44.8882 144.981 44.8519C144.831 44.8156 144.686 44.8299 144.545 44.8948L143.29 43.3352C143.648 43.12 144.005 43.0016 144.362 42.9801C144.725 42.9528 145.078 43.001 145.419 43.1248C145.759 43.2487 146.078 43.4269 146.373 43.6595C146.682 43.8935 146.96 44.1642 147.207 44.4718C147.885 45.3138 148.144 46.1306 147.984 46.922C147.832 47.7076 147.317 48.4537 146.438 49.1605L143.319 51.6695L142.206 50.2855L142.935 49.6628C142.532 49.6859 142.177 49.6274 141.871 49.4873C141.572 49.3546 141.322 49.1938 141.122 49.005C140.922 48.8162 140.769 48.6559 140.663 48.5241ZM142.164 47.895C142.371 48.1513 142.61 48.3443 142.884 48.4742C143.157 48.6041 143.431 48.6606 143.707 48.6438C143.983 48.6269 144.231 48.5301 144.451 48.3534L144.593 48.2386L143.745 47.1842C143.622 47.0304 143.494 46.8862 143.361 46.7515C143.235 46.6242 143.102 46.5196 142.964 46.4378C142.839 46.3574 142.706 46.3196 142.565 46.3244C142.424 46.3291 142.281 46.3904 142.134 46.5082C141.988 46.626 141.893 46.7627 141.849 46.9184C141.819 47.0755 141.831 47.2406 141.886 47.4136C141.948 47.5808 142.041 47.7412 142.164 47.895Z" fill="#FF6D00"/>
<path d="M144.277 53.1308L150.519 49.1035L151.482 50.5959L150.805 51.1839C151.144 51.189 151.436 51.2521 151.682 51.373C151.935 51.4889 152.151 51.6407 152.328 51.8285C152.513 52.0111 152.677 52.213 152.819 52.434C152.885 52.5367 152.943 52.634 152.991 52.7259C153.047 52.8128 153.088 52.876 153.113 52.9155L151.514 53.9471L151.262 53.5563C151.022 53.1851 150.75 52.9021 150.446 52.7073C150.141 52.5124 149.806 52.4266 149.441 52.4498C149.081 52.4809 148.691 52.6314 148.273 52.9014L145.347 54.789L144.277 53.1308Z" fill="#FF6D00"/>
<path d="M148.618 60.7368C148.267 60.04 148.108 59.3785 148.14 58.7522C148.172 58.126 148.375 57.5561 148.748 57.0426C149.129 56.5248 149.66 56.095 150.34 55.753C151.028 55.4069 151.696 55.2394 152.343 55.2505C152.999 55.2575 153.596 55.4305 154.135 55.7697C154.678 56.1173 155.118 56.6269 155.456 57.2985C155.709 57.8023 155.847 58.2852 155.869 58.7475C155.895 59.2181 155.822 59.6595 155.651 60.0717C155.484 60.4924 155.23 60.867 154.891 61.1955C154.564 61.5282 154.167 61.8065 153.701 62.0303C153.584 62.0894 153.468 62.1422 153.355 62.1887C153.242 62.2351 153.124 62.2732 153.002 62.3029L150.716 57.7568C150.477 57.9086 150.282 58.096 150.131 58.3191C149.981 58.5422 149.895 58.7903 149.875 59.0635C149.867 59.3409 149.943 59.6391 150.103 59.9581C150.209 60.168 150.327 60.3506 150.458 60.5058C150.597 60.6567 150.748 60.7699 150.912 60.8451C151.076 60.9204 151.238 60.9495 151.398 60.9323L152.272 62.6702C151.722 62.8101 151.211 62.8091 150.74 62.6673C150.273 62.5339 149.859 62.2953 149.496 61.9515C149.143 61.6035 148.85 61.1986 148.618 60.7368ZM151.969 57.174L153.419 60.0579C153.642 59.9355 153.822 59.7712 153.96 59.5649C154.111 59.3629 154.193 59.1274 154.205 58.8584C154.229 58.5936 154.161 58.3016 154.001 57.9826C153.841 57.6636 153.643 57.4266 153.407 57.2716C153.175 57.1251 152.931 57.0479 152.675 57.04C152.431 57.0364 152.196 57.081 151.969 57.174Z" fill="#FF6D00"/>
<path d="M153.322 73.232C153.142 72.5603 153.079 71.906 153.132 71.2691C153.188 70.6414 153.39 70.0716 153.739 69.5597C154.091 69.0569 154.612 68.6596 155.303 68.3677L155.835 70.3556C155.548 70.5199 155.339 70.7366 155.206 71.0055C155.083 71.2719 155.021 71.5659 155.019 71.8873C155.02 72.2178 155.066 72.551 155.156 72.8868C155.224 73.141 155.322 73.3821 155.452 73.6102C155.581 73.8382 155.743 74.0088 155.939 74.1218C156.137 74.2438 156.367 74.2696 156.631 74.1991C156.83 74.1456 156.982 74.0565 157.084 73.9317C157.19 73.816 157.257 73.6667 157.285 73.4839C157.326 73.3077 157.347 73.0976 157.35 72.8537C157.354 72.6484 157.346 72.4366 157.326 72.2181C157.309 72.0087 157.301 71.7968 157.302 71.5825C157.305 71.3773 157.319 71.1742 157.343 70.9732C157.341 70.604 157.361 70.2435 157.403 69.8918C157.454 69.5376 157.547 69.2113 157.681 68.9127C157.824 68.6117 158.031 68.3473 158.3 68.1194C158.573 67.9006 158.927 67.7328 159.362 67.6162C159.834 67.4898 160.254 67.46 160.622 67.5268C160.993 67.6026 161.318 67.7442 161.597 67.9516C161.888 68.1655 162.136 68.4201 162.342 68.7153C162.549 69.0196 162.721 69.3335 162.856 69.6572C162.992 69.9809 163.1 70.2926 163.18 70.5921C163.347 71.2184 163.389 71.8104 163.305 72.368C163.221 72.9256 163.004 73.4215 162.653 73.8559C162.302 74.2903 161.802 74.6189 161.151 74.8417L160.644 72.9491C160.907 72.8399 161.103 72.6805 161.231 72.4709C161.36 72.2614 161.431 72.0186 161.445 71.7425C161.461 71.4756 161.428 71.1878 161.345 70.8791C161.292 70.6794 161.221 70.4891 161.134 70.3082C161.046 70.1274 160.941 69.9707 160.818 69.8383C160.707 69.7125 160.575 69.6212 160.424 69.5645C160.275 69.5168 160.11 69.5173 159.928 69.5659C159.747 69.6145 159.601 69.707 159.492 69.8433C159.391 69.9772 159.317 70.1528 159.268 70.3701C159.231 70.5941 159.206 70.8487 159.195 71.1338C159.177 71.4304 159.181 71.7358 159.207 72.05C159.233 72.3641 159.237 72.6695 159.219 72.9661C159.221 73.3353 159.198 73.6867 159.151 74.0203C159.113 74.3515 159.029 74.656 158.9 74.934C158.779 75.2095 158.59 75.4498 158.334 75.6546C158.086 75.8571 157.754 76.0142 157.336 76.126C156.783 76.2743 156.283 76.2963 155.837 76.192C155.402 76.0944 155.019 75.9002 154.688 75.6094C154.36 75.3277 154.082 74.979 153.854 74.5634C153.626 74.1478 153.448 73.704 153.322 73.232Z" fill="#FF6D00"/>
<path d="M154.976 81.795C154.844 80.713 155.018 79.8445 155.496 79.1898C155.985 78.5432 156.79 78.1516 157.909 78.0151L162.037 77.5117L162.276 79.4706L158.288 79.9569C157.952 79.9979 157.659 80.081 157.409 80.206C157.17 80.339 156.988 80.518 156.864 80.741C156.741 80.974 156.7 81.258 156.741 81.594C156.785 81.958 156.899 82.228 157.081 82.404C157.264 82.581 157.49 82.691 157.76 82.733C158.04 82.775 158.329 82.778 158.627 82.741L162.615 82.255L162.852 84.2L158.725 84.703C157.559 84.845 156.674 84.655 156.071 84.132C155.468 83.619 155.104 82.84 154.976 81.795Z" fill="#FF6D00"/>
<path d="M152.827 87.1523L163.031 87.3063L163.003 89.1523L162.071 89.2373C162.433 89.5433 162.696 89.8903 162.859 90.2783C163.023 90.6753 163.101 91.1083 163.094 91.5783C163.083 92.3113 162.904 92.9143 162.559 93.3893C162.213 93.8633 161.748 94.2133 161.162 94.4393C160.585 94.6753 159.939 94.7873 159.225 94.7763C158.492 94.7653 157.837 94.6293 157.258 94.3663C156.688 94.1133 156.238 93.7353 155.907 93.2323C155.586 92.7293 155.431 92.1073 155.442 91.3653C155.447 91.0453 155.489 90.7453 155.568 90.4643C155.648 90.1833 155.75 89.9363 155.876 89.7223C156.01 89.5083 156.159 89.3263 156.321 89.1793L152.797 89.1263L152.827 87.1523ZM157.223 91.0533C157.216 91.4953 157.31 91.8443 157.503 92.1003C157.697 92.3573 157.943 92.5393 158.242 92.6473C158.551 92.7553 158.869 92.8123 159.198 92.8173C159.555 92.8223 159.894 92.7713 160.216 92.6633C160.537 92.5553 160.793 92.3713 160.985 92.1103C161.186 91.8603 161.29 91.5133 161.297 91.0723C161.303 90.6773 161.209 90.3423 161.016 90.0673C160.832 89.7913 160.586 89.5813 160.278 89.4353C159.97 89.2903 159.638 89.2143 159.281 89.2093C158.924 89.2043 158.589 89.2643 158.277 89.3913C157.965 89.5273 157.713 89.7303 157.521 90.0003C157.329 90.2793 157.229 90.6303 157.223 91.0533Z" fill="#FF6D00"/>
<path d="M152.589 95.8164L162.674 97.3764L162.392 99.2014L161.457 99.1564C161.773 99.5094 161.986 99.8894 162.094 100.296C162.201 100.712 162.218 101.152 162.146 101.616C162.034 102.341 161.774 102.914 161.367 103.336C160.959 103.757 160.449 104.04 159.838 104.183C159.234 104.337 158.579 104.359 157.873 104.25C157.149 104.138 156.518 103.912 155.981 103.572C155.452 103.243 155.059 102.806 154.8 102.262C154.552 101.72 154.484 101.082 154.597 100.348C154.646 100.033 154.729 99.7414 154.847 99.4744C154.964 99.2074 155.1 98.9764 155.254 98.7814C155.417 98.5884 155.589 98.4294 155.769 98.3054L152.287 97.7664L152.589 95.8164ZM156.404 100.286C156.337 100.722 156.381 101.081 156.537 101.362C156.694 101.643 156.912 101.857 157.194 102.005C157.484 102.155 157.792 102.255 158.117 102.305C158.47 102.36 158.813 102.356 159.146 102.293C159.479 102.23 159.759 102.084 159.984 101.852C160.218 101.632 160.369 101.303 160.437 100.867C160.497 100.477 160.45 100.132 160.297 99.8324C160.153 99.5344 159.938 99.2924 159.654 99.1054C159.369 98.9194 159.05 98.7984 158.697 98.7434C158.344 98.6894 158.004 98.7034 157.678 98.7854C157.35 98.8774 157.072 99.0434 156.845 99.2844C156.616 99.5344 156.469 99.8684 156.404 100.286Z" fill="#FF6D00"/>
<path d="M152.724 108.421C152.94 107.701 153.274 107.114 153.724 106.661C154.183 106.21 154.727 105.917 155.356 105.782C155.995 105.65 156.687 105.697 157.434 105.921C158.199 106.151 158.812 106.497 159.271 106.959C159.737 107.432 160.038 107.984 160.172 108.613C160.307 109.242 160.269 109.908 160.058 110.61C159.842 111.33 159.501 111.909 159.036 112.348C158.57 112.787 158.018 113.073 157.38 113.205C156.742 113.337 156.04 113.288 155.275 113.058C154.528 112.834 153.925 112.49 153.465 112.029C153.012 111.578 152.721 111.044 152.592 110.427C152.461 109.818 152.505 109.15 152.724 108.421ZM154.46 108.913C154.336 109.327 154.326 109.687 154.43 109.993C154.534 110.299 154.714 110.549 154.97 110.744C155.232 110.95 155.524 111.102 155.848 111.199C156.172 111.297 156.5 111.331 156.833 111.304C157.162 111.285 157.459 111.178 157.724 110.983C157.995 110.799 158.194 110.496 158.321 110.073C158.443 109.668 158.442 109.31 158.32 108.998C158.207 108.689 158.019 108.432 157.757 108.226C157.493 108.028 157.199 107.881 156.875 107.784C156.542 107.684 156.215 107.645 155.894 107.666C155.571 107.696 155.282 107.811 155.026 108.009C154.77 108.206 154.582 108.508 154.46 108.913Z" fill="#FF6D00"/>
<path d="M151.124 113.441L157.952 116.367L157.252 117.999L156.386 117.766C156.571 118.05 156.682 118.328 156.719 118.599C156.765 118.874 156.759 119.138 156.702 119.389C156.654 119.645 156.579 119.894 156.475 120.135C156.427 120.248 156.378 120.349 156.329 120.441C156.288 120.536 156.258 120.605 156.24 120.648L154.491 119.899L154.674 119.471C154.848 119.065 154.931 118.681 154.922 118.32C154.913 117.958 154.797 117.633 154.574 117.343C154.347 117.061 154.004 116.823 153.547 116.626L150.346 115.255L151.124 113.441Z" fill="#FF6D00"/>
<path d="M147.186 121.693C147.476 121.145 147.787 120.72 148.118 120.416C148.444 120.121 148.816 119.962 149.233 119.938C149.653 119.927 150.142 120.069 150.698 120.364L153.513 121.855L154.028 120.883L155.585 121.708L155.07 122.68L156.826 123.61L155.902 125.354L154.146 124.424L153.387 125.856L151.83 125.031L152.589 123.599L150.023 122.239C149.749 122.094 149.507 122.03 149.296 122.046C149.086 122.062 148.888 122.244 148.703 122.593L148.413 123.141L146.856 122.316L147.186 121.693Z" fill="#FF6D00"/>
<path d="M147.599 131.288L149.192 130.811L149.438 132.196L150.494 131.261L151.45 132.616L150.206 133.285L151.423 133.989L150.414 135.329L149.401 134.355L149.111 135.725L147.536 135.192L148.142 133.919L146.752 134.055L146.768 132.392L148.155 132.588L147.599 131.288Z" fill="#FF6D00"/>
<path d="M136.661 135.619L143.374 143.004L138.054 147.839L136.793 146.452L140.621 142.973L139.104 141.304L135.819 144.29L134.605 142.955L137.891 139.969L136.421 138.352L132.593 141.832L131.342 140.455L136.661 135.619Z" fill="#FF6D00"/>
<path d="M127.642 142.946C128.263 142.521 128.874 142.308 129.476 142.305C130.075 142.316 130.638 142.489 131.163 142.824C131.694 143.166 132.159 143.628 132.557 144.21C132.977 144.822 133.24 145.439 133.347 146.061C133.459 146.69 133.395 147.287 133.154 147.85C132.914 148.413 132.475 148.913 131.84 149.348C131.623 149.497 131.391 149.616 131.144 149.705C130.895 149.807 130.647 149.869 130.4 149.89C130.15 149.925 129.906 149.91 129.668 149.845L131.5 152.519L129.872 153.635L124.233 145.401L125.814 144.318L126.307 144.988C126.325 144.714 126.394 144.45 126.516 144.196C126.636 143.954 126.789 143.73 126.977 143.521C127.165 143.313 127.386 143.121 127.642 142.946ZM128.32 144.634C127.971 144.873 127.744 145.149 127.639 145.46C127.525 145.777 127.502 146.1 127.569 146.431C127.636 146.761 127.77 147.073 127.972 147.368C128.179 147.67 128.421 147.908 128.7 148.082C128.976 148.269 129.277 148.359 129.603 148.352C129.926 148.358 130.266 148.239 130.622 147.995C130.979 147.751 131.21 147.473 131.316 147.162C131.421 146.85 131.43 146.531 131.343 146.203C131.253 145.889 131.107 145.585 130.905 145.29C130.756 145.073 130.59 144.88 130.405 144.71C130.218 144.553 130.013 144.437 129.791 144.362C129.568 144.286 129.332 144.266 129.082 144.3C128.838 144.343 128.584 144.454 128.32 144.634Z" fill="#FF6D00"/>
<path d="M119.659 147.69C120.633 147.203 121.51 147.074 122.287 147.305C123.06 147.548 123.699 148.174 124.204 149.183L126.065 152.901L124.3 153.785L122.502 150.192C122.351 149.89 122.174 149.642 121.973 149.448C121.767 149.268 121.538 149.156 121.285 149.115C121.025 149.077 120.743 149.134 120.441 149.285C120.113 149.449 119.897 149.647 119.792 149.878C119.687 150.109 119.659 150.359 119.71 150.628C119.765 150.905 119.859 151.178 119.994 151.447L121.792 155.04L120.04 155.917L118.179 152.198C117.653 151.148 117.535 150.25 117.825 149.507C118.106 148.767 118.717 148.161 119.659 147.69Z" fill="#FF6D00"/>
<path d="M111.691 151.033C112.411 150.786 113.079 150.721 113.695 150.838C114.302 150.957 114.83 151.238 115.28 151.68C115.732 152.131 116.084 152.721 116.333 153.45C116.586 154.188 116.668 154.875 116.578 155.512C116.491 156.157 116.242 156.72 115.83 157.199C115.409 157.681 114.83 158.048 114.092 158.301C113.523 158.496 112.981 158.567 112.467 158.515C111.952 158.463 111.496 158.291 111.098 158.001C110.692 157.713 110.37 157.297 110.134 156.752L111.961 156.126C112.147 156.409 112.381 156.583 112.661 156.646C112.932 156.712 113.223 156.692 113.534 156.585C113.934 156.448 114.22 156.24 114.393 155.963C114.557 155.688 114.641 155.381 114.644 155.042C114.638 154.706 114.584 154.387 114.48 154.085C114.367 153.756 114.207 153.463 114 153.207C113.796 152.959 113.546 152.781 113.251 152.674C112.95 152.578 112.609 152.596 112.226 152.727C111.906 152.836 111.651 153.004 111.459 153.228C111.271 153.461 111.195 153.746 111.23 154.081L109.364 154.721C109.21 154.128 109.219 153.589 109.39 153.103C109.561 152.617 109.849 152.196 110.253 151.838C110.651 151.493 111.131 151.225 111.691 151.033Z" fill="#FF6D00"/>
<path d="M104.364 153.074C104.696 153.007 105.026 152.984 105.356 153.003C105.679 153.034 105.978 153.118 106.255 153.254C106.532 153.39 106.767 153.582 106.961 153.83C107.155 154.079 107.289 154.387 107.363 154.756C107.463 155.253 107.442 155.67 107.299 156.005C107.157 156.35 106.932 156.635 106.623 156.861C106.313 157.086 105.943 157.271 105.512 157.415C105.072 157.561 104.612 157.683 104.133 157.779L103.083 157.991C103.137 158.258 103.235 158.483 103.377 158.665C103.512 158.858 103.687 158.991 103.903 159.062C104.121 159.143 104.381 159.153 104.685 159.092C104.879 159.053 105.062 158.987 105.235 158.894C105.401 158.813 105.534 158.714 105.636 158.598C105.737 158.482 105.791 158.346 105.798 158.191L107.76 157.796C107.787 158.212 107.727 158.584 107.582 158.91C107.439 159.246 107.234 159.536 106.967 159.782C106.7 160.027 106.396 160.228 106.053 160.383C105.703 160.55 105.335 160.672 104.948 160.75C103.888 160.963 103.044 160.817 102.415 160.311C101.788 159.815 101.363 159.014 101.14 157.908L100.349 153.984L102.09 153.633L102.307 154.567C102.472 154.198 102.687 153.91 102.952 153.704C103.208 153.499 103.466 153.351 103.726 153.26C103.985 153.169 104.198 153.107 104.364 153.074ZM104.231 154.697C103.909 154.762 103.627 154.886 103.386 155.069C103.144 155.251 102.968 155.469 102.856 155.722C102.744 155.974 102.716 156.239 102.771 156.515L102.808 156.695L104.134 156.428C104.328 156.389 104.514 156.341 104.695 156.286C104.866 156.232 105.02 156.163 105.156 156.078C105.285 156.004 105.38 155.903 105.441 155.776C105.501 155.649 105.513 155.493 105.476 155.309C105.439 155.124 105.361 154.977 105.243 154.867C105.118 154.767 104.965 154.702 104.787 154.671C104.61 154.649 104.424 154.658 104.231 154.697Z" fill="#FF6D00"/>
<path d="M95.3221 154.477C95.9391 154.416 96.4651 154.439 96.9011 154.547C97.3271 154.656 97.6661 154.878 97.9161 155.212C98.1581 155.556 98.3101 156.041 98.3721 156.668L98.6851 159.838L99.7801 159.73L99.9531 161.483L98.8591 161.591L99.0551 163.569L97.0911 163.764L96.8951 161.786L95.2821 161.946L95.1091 160.192L96.7221 160.032L96.4361 157.143C96.4051 156.834 96.3251 156.597 96.1951 156.43C96.0651 156.264 95.8041 156.2 95.4111 156.239L94.7941 156.3L94.6211 154.546L95.3221 154.477Z" fill="#FF6D00"/>
<path d="M93.8675 154.547L94.1205 161.971L92.1485 162.038L91.8945 154.614L93.8675 154.547ZM93.1595 162.751C93.5265 162.739 93.8255 162.836 94.0585 163.045C94.2915 163.263 94.4145 163.545 94.4255 163.893C94.4385 164.259 94.3315 164.559 94.1045 164.792C93.8765 165.026 93.5845 165.148 93.2285 165.161C92.8995 165.172 92.6135 165.069 92.3715 164.851C92.1195 164.644 91.9875 164.357 91.9755 163.99C91.9635 163.633 92.0705 163.338 92.2975 163.105C92.5155 162.881 92.8035 162.763 93.1595 162.751Z" fill="#FF6D00"/>
<path d="M86.6356 154.391C87.3856 154.437 88.0326 154.628 88.5776 154.963C89.1206 155.307 89.5306 155.77 89.8056 156.351C90.0796 156.943 90.1926 157.627 90.1446 158.406C90.0956 159.203 89.8996 159.878 89.5546 160.431C89.1996 160.993 88.7316 161.412 88.1496 161.687C87.5676 161.962 86.9116 162.077 86.1796 162.032C85.4296 161.985 84.7876 161.786 84.2536 161.433C83.7196 161.08 83.3156 160.608 83.0416 160.017C82.7666 159.426 82.6546 158.732 82.7036 157.934C82.7516 157.156 82.9476 156.49 83.2926 155.937C83.6266 155.393 84.0806 154.987 84.6516 154.721C85.2146 154.455 85.8756 154.345 86.6356 154.391ZM86.5526 156.194C86.1216 156.167 85.7686 156.24 85.4946 156.411C85.2206 156.583 85.0176 156.815 84.8866 157.108C84.7456 157.41 84.6646 157.73 84.6436 158.068C84.6236 158.405 84.6646 158.733 84.7676 159.05C84.8606 159.366 85.0326 159.631 85.2836 159.844C85.5236 160.066 85.8646 160.19 86.3056 160.218C86.7276 160.244 87.0766 160.161 87.3516 159.971C87.6266 159.79 87.8336 159.549 87.9746 159.247C88.1066 158.944 88.1826 158.624 88.2036 158.287C88.2246 157.939 88.1886 157.612 88.0946 157.305C87.9906 156.998 87.8136 156.742 87.5626 156.538C87.3116 156.335 86.9746 156.22 86.5526 156.194Z" fill="#FF6D00"/>
<path d="M81.323 154.035L79.878 161.322L78.0672 160.963L78.1376 160.1C77.8855 160.309 77.6167 160.457 77.3312 160.544C77.0346 160.638 76.7472 160.687 76.4689 160.689C76.1814 160.689 75.9271 160.668 75.7059 160.624C75.0053 160.485 74.4916 160.225 74.1648 159.844C73.8288 159.461 73.629 158.995 73.5654 158.446C73.4908 157.905 73.5156 157.32 73.6399 156.694L74.4377 152.67L76.3734 153.054L75.625 156.829C75.5811 157.05 75.5557 157.275 75.5487 157.503C75.5417 157.732 75.5706 157.948 75.6354 158.153C75.6911 158.355 75.7955 158.529 75.9487 158.675C76.1019 158.82 76.3213 158.921 76.6071 158.978C76.9758 159.051 77.3029 159.02 77.5883 158.885C77.8737 158.75 78.1074 158.537 78.2894 158.248C78.4714 157.958 78.5998 157.624 78.6747 157.246L79.388 153.652L81.323 154.035Z" fill="#FF6D00"/>
<path d="M65.1428 149.272C65.783 149.544 66.3377 149.896 66.807 150.33C67.2676 150.76 67.5921 151.27 67.7806 151.861C67.9605 152.447 67.9532 153.103 67.7585 153.826L65.8639 153.023C65.9108 152.696 65.8689 152.397 65.7384 152.128C65.6041 151.866 65.4107 151.636 65.1582 151.438C64.8971 151.235 64.6066 151.066 64.2865 150.93C64.0443 150.827 63.7934 150.757 63.5342 150.718C63.2749 150.68 63.0406 150.703 62.8311 150.787C62.613 150.868 62.4509 151.034 62.3445 151.285C62.2637 151.476 62.2408 151.65 62.276 151.807C62.3025 151.962 62.3789 152.106 62.5053 152.242C62.6193 152.382 62.7717 152.528 62.9623 152.68C63.122 152.809 63.2939 152.933 63.4782 153.052C63.6538 153.168 63.8258 153.292 63.9941 153.424C64.1537 153.553 64.3055 153.689 64.4492 153.831C64.7412 154.057 65.0129 154.295 65.2644 154.545C65.5121 154.803 65.7124 155.077 65.8653 155.366C66.0145 155.664 66.0959 155.99 66.1095 156.342C66.1146 156.692 66.029 157.074 65.8529 157.489C65.6621 157.939 65.4271 158.288 65.1479 158.537C64.8601 158.783 64.5485 158.952 64.2132 159.044C63.8656 159.142 63.5124 159.181 63.1532 159.161C62.7854 159.138 62.4322 159.08 62.0938 158.988C61.7554 158.895 61.4435 158.788 61.158 158.667C60.5611 158.414 60.0687 158.083 59.6809 157.673C59.2932 157.264 59.036 156.787 58.9093 156.244C58.7826 155.7 58.8317 155.103 59.0563 154.453L60.8599 155.218C60.7845 155.492 60.7897 155.745 60.8757 155.975C60.9617 156.206 61.1094 156.411 61.3186 156.592C61.5192 156.769 61.7664 156.92 62.0606 157.044C62.2509 157.125 62.4442 157.187 62.6406 157.229C62.8369 157.271 63.0253 157.285 63.2053 157.269C63.3731 157.259 63.5259 157.212 63.6638 157.127C63.7931 157.039 63.8944 156.908 63.9677 156.735C64.0411 156.562 64.0577 156.391 64.0175 156.221C63.9737 156.059 63.8813 155.892 63.74 155.72C63.5863 155.553 63.4005 155.377 63.1826 155.193C62.9598 154.996 62.7167 154.812 62.4532 154.639C62.1897 154.466 61.9466 154.281 61.7237 154.084C61.4317 153.858 61.1686 153.624 60.9345 153.382C60.6967 153.148 60.5082 152.895 60.369 152.622C60.2261 152.357 60.1528 152.06 60.1491 151.732C60.1417 151.413 60.2225 151.054 60.3913 150.656C60.6151 150.128 60.9054 149.72 61.2622 149.433C61.6066 149.15 61.9951 148.968 62.4279 148.886C62.852 148.801 63.2982 148.796 63.7661 148.872C64.234 148.948 64.6929 149.081 65.1428 149.272Z" fill="#FF6D00"/>
<path d="M57.342 145.289C58.2758 145.851 58.8534 146.522 59.0746 147.302C59.283 148.086 59.0963 148.961 58.5147 149.927L56.37 153.489L54.6794 152.471L56.7514 149.03C56.9259 148.74 57.0407 148.458 57.0959 148.184C57.1382 147.914 57.1096 147.661 57.01 147.425C56.9024 147.185 56.7037 146.977 56.4139 146.803C56.0999 146.614 55.8172 146.537 55.5657 146.572C55.3142 146.607 55.0885 146.718 54.8883 146.905C54.6834 147.099 54.5034 147.325 54.3483 147.583L52.2763 151.025L50.5977 150.014L52.7424 146.452C53.3482 145.445 54.0429 144.865 54.8263 144.712C55.6018 144.554 56.4403 144.746 57.342 145.289Z" fill="#FF6D00"/>
<path d="M54.5099 140.343L48.1075 148.29L46.6696 147.131L47.1764 146.345C46.7123 146.442 46.2772 146.435 45.871 146.325C45.4576 146.209 45.0679 146.004 44.702 145.709C44.1312 145.249 43.7654 144.737 43.6044 144.173C43.4434 143.609 43.4542 143.027 43.6368 142.426C43.8062 141.826 44.1149 141.248 44.5629 140.692C45.0227 140.121 45.5342 139.688 46.0973 139.394C46.6472 139.101 47.2221 138.979 47.8222 139.028C48.4164 139.084 49.0025 139.345 49.5806 139.811C49.8294 140.011 50.04 140.229 50.2124 140.465C50.3847 140.7 50.5168 140.933 50.6084 141.164C50.6942 141.402 50.7455 141.63 50.7624 141.849L52.9731 139.105L54.5099 140.343ZM48.7298 141.406C48.3859 141.129 48.0533 140.988 47.7319 140.982C47.4105 140.977 47.1152 141.059 46.8461 141.228C46.571 141.405 46.3304 141.621 46.124 141.877C45.9 142.155 45.7317 142.454 45.619 142.774C45.5064 143.093 45.4936 143.409 45.5806 143.72C45.6544 144.033 45.8632 144.328 46.2071 144.605C46.5145 144.853 46.8362 144.985 47.1722 145.002C47.5023 145.027 47.8195 144.963 48.1238 144.81C48.4281 144.657 48.6923 144.441 48.9163 144.163C49.1403 143.885 49.2984 143.584 49.3905 143.26C49.4753 142.93 49.4705 142.606 49.3762 142.289C49.2746 141.966 49.0591 141.671 48.7298 141.406Z" fill="#FF6D00"/>
<path d="M47.8561 134.845L40.4207 141.835L39.1559 140.49L39.7662 139.781C39.2932 139.812 38.8631 139.746 38.476 139.581C38.0824 139.409 37.7247 139.152 37.4029 138.81C36.9008 138.276 36.6089 137.719 36.5271 137.138C36.4453 136.557 36.5362 135.981 36.7998 135.411C37.0501 134.84 37.4354 134.311 37.9558 133.821C38.4898 133.319 39.0559 132.961 39.6542 132.747C40.2392 132.532 40.8255 132.491 41.4131 132.622C41.9939 132.759 42.5385 133.099 43.047 133.639C43.2658 133.872 43.4444 134.117 43.5827 134.374C43.721 134.631 43.8197 134.88 43.8788 135.121C43.931 135.369 43.9503 135.602 43.9369 135.821L46.5044 133.407L47.8561 134.845ZM41.9847 135.102C41.6822 134.781 41.3721 134.595 41.0546 134.545C40.737 134.496 40.4333 134.536 40.1434 134.667C39.8467 134.804 39.5785 134.985 39.3388 135.21C39.0787 135.455 38.8708 135.728 38.7153 136.029C38.5597 136.33 38.5036 136.64 38.5469 136.961C38.5769 137.281 38.7432 137.602 39.0457 137.923C39.316 138.211 39.6164 138.387 39.9468 138.45C40.2704 138.52 40.5935 138.5 40.9159 138.39C41.2384 138.28 41.5298 138.103 41.7899 137.859C42.0501 137.614 42.2481 137.338 42.3839 137.029C42.5133 136.714 42.5531 136.393 42.5034 136.066C42.4472 135.732 42.2743 135.411 41.9847 135.102Z" fill="#FF6D00"/>
<path d="M37.8293 127.198C38.2647 127.81 38.523 128.434 38.6043 129.068C38.678 129.707 38.5748 130.316 38.2947 130.895C38.007 131.48 37.5451 131.998 36.9093 132.45C36.2581 132.913 35.609 133.183 34.9621 133.263C34.3021 133.339 33.6825 133.238 33.1031 132.958C32.5238 132.678 32.022 132.239 31.5975 131.641C31.1622 131.028 30.9142 130.403 30.8537 129.766C30.7931 129.129 30.9067 128.518 31.1944 127.934C31.4822 127.349 31.9517 126.825 32.6029 126.363C33.2387 125.911 33.8801 125.646 34.527 125.567C35.1608 125.485 35.7608 125.584 36.327 125.861C36.8878 126.132 37.3886 126.577 37.8293 127.198ZM36.3747 128.265C36.1244 127.913 35.8465 127.684 35.5409 127.578C35.2353 127.473 34.9273 127.461 34.6168 127.543C34.2932 127.623 33.9936 127.761 33.7178 127.957C33.442 128.153 33.213 128.39 33.031 128.669C32.8434 128.941 32.7454 129.241 32.7369 129.57C32.7153 129.896 32.8323 130.24 33.0881 130.6C33.333 130.945 33.6159 131.164 33.9368 131.259C34.25 131.359 34.5684 131.369 34.892 131.29C35.2101 131.202 35.5071 131.06 35.7829 130.864C36.0663 130.663 36.298 130.429 36.4778 130.163C36.6522 129.889 36.7399 129.591 36.7407 129.267C36.7416 128.944 36.6196 128.61 36.3747 128.265Z" fill="#FF6D00"/>
<path d="M34.8396 122.837L28.3393 126.433L27.4797 124.879L28.1954 124.338C27.8577 124.31 27.5704 124.227 27.3333 124.09C27.0881 123.957 26.8835 123.791 26.7196 123.592C26.5474 123.397 26.3977 123.184 26.2703 122.954C26.2112 122.847 26.1607 122.746 26.1189 122.651C26.0689 122.561 26.0325 122.495 26.0098 122.454L27.6749 121.533L27.9001 121.94C28.1138 122.326 28.3661 122.627 28.6568 122.842C28.9476 123.057 29.276 123.166 29.642 123.167C30.0034 123.161 30.402 123.037 30.8379 122.796L33.8845 121.111L34.8396 122.837Z" fill="#FF6D00"/>
<path d="M30.7454 114.672C31 115.237 31.1455 115.744 31.182 116.191C31.2147 116.63 31.1126 117.021 30.8757 117.365C30.6264 117.704 30.2147 118.002 29.6406 118.261L26.7358 119.569L27.1871 120.571L25.5805 121.294L25.1292 120.292L23.3169 121.108L22.5068 119.308L24.319 118.492L23.6536 117.014L25.2602 116.291L25.9257 117.769L28.5734 116.577C28.8562 116.45 29.0558 116.298 29.1723 116.122C29.2888 115.946 29.2661 115.678 29.104 115.318L28.8494 114.752L30.4561 114.029L30.7454 114.672Z" fill="#FF6D00"/>
<path d="M22.9175 109.108L22.3146 110.658L21.0711 110.001L21.1596 111.408L19.5032 111.331L19.7398 109.938L18.4369 110.465L17.999 108.846L19.3902 108.645L18.4876 107.575L19.8754 106.66L20.5081 107.92L21.2549 106.739L22.5569 107.774L21.5498 108.748L22.9175 109.108Z" fill="#FF6D00"/>
<path d="M26.2495 97.847L16.3023 98.65L15.7305 91.569L17.5991 91.418L18.0087 96.49L20.5798 96.283L20.2338 91.998L22.0884 91.848L22.4343 96.133L26.0873 95.838L26.2495 97.847Z" fill="#FF6D00"/>
<path d="M25.9902 86.4414C25.9527 87.1924 25.7698 87.8414 25.4413 88.3894C25.1035 88.9374 24.6453 89.3514 24.0667 89.6334C23.4787 89.9144 22.7952 90.0354 22.0163 89.9964C21.2185 89.9564 20.5411 89.7674 19.9841 89.4294C19.4181 89.0814 18.9943 88.6184 18.7128 88.0394C18.4312 87.4604 18.3086 86.8054 18.3452 86.0734C18.3827 85.3224 18.5748 84.6784 18.9216 84.1404C19.2683 83.6024 19.7357 83.1934 20.3237 82.9124C20.9116 82.6314 21.6045 82.5104 22.4023 82.5504C23.1812 82.5894 23.8492 82.7774 24.4063 83.1164C24.9544 83.4444 25.3648 83.8934 25.6375 84.4614C25.9106 85.0214 26.0282 85.6814 25.9902 86.4414ZM24.1869 86.3794C24.2084 85.9474 24.1319 85.5954 23.9573 85.3234C23.7827 85.0514 23.5481 84.8514 23.2534 84.7234C22.9498 84.5864 22.629 84.5094 22.2912 84.4924C21.9533 84.4754 21.6264 84.5204 21.3106 84.6264C20.9953 84.7234 20.7325 84.8994 20.5223 85.1514C20.3032 85.3954 20.1826 85.7374 20.1606 86.1784C20.1395 86.6004 20.2256 86.9484 20.419 87.2214C20.6029 87.4944 20.8467 87.6994 21.1503 87.8364C21.4544 87.9644 21.7754 88.0374 22.1133 88.0544C22.4605 88.0714 22.7871 88.0314 23.0931 87.9334C23.3995 87.8264 23.6531 87.6464 23.854 87.3934C24.0548 87.1394 24.1658 86.8014 24.1869 86.3794Z" fill="#FF6D00"/>
<path d="M27.0219 77.7168C26.8833 78.4557 26.6143 79.0745 26.2148 79.5733C25.8062 80.0703 25.2961 80.4193 24.6848 80.6203C24.0643 80.8193 23.3707 80.8473 22.6041 80.7033C21.8191 80.5563 21.1734 80.2773 20.6672 79.8668C20.1534 79.4454 19.7961 78.9291 19.5952 78.3177C19.3943 77.7064 19.3614 77.0406 19.4965 76.3202C19.635 75.5813 19.9124 74.9688 20.3286 74.4828C20.7448 73.9967 21.2632 73.6541 21.8837 73.455C22.5043 73.2558 23.2071 73.2298 23.9921 73.377C24.7587 73.5208 25.3952 73.7979 25.9014 74.2083C26.4002 74.6077 26.7462 75.1076 26.9396 75.708C27.1347 76.2991 27.1621 76.9687 27.0219 77.7168ZM25.2433 77.412C25.323 76.9872 25.2947 76.6281 25.1585 76.3349C25.0223 76.0416 24.8167 75.8119 24.542 75.6456C24.2597 75.4684 23.9523 75.3486 23.6198 75.2863C23.2873 75.224 22.9574 75.2242 22.6301 75.2872C22.3045 75.3408 22.0205 75.4788 21.7781 75.7011C21.5281 75.9123 21.3625 76.235 21.2811 76.6691C21.2031 77.0847 21.2415 77.4409 21.3962 77.7376C21.5417 78.0326 21.7556 78.2687 22.0378 78.4459C22.3219 78.6139 22.6301 78.729 22.9626 78.7914C23.3043 78.8555 23.6334 78.8598 23.9497 78.8044C24.2678 78.7397 24.5434 78.5954 24.7766 78.3714C25.0098 78.1475 25.1654 77.8277 25.2433 77.412Z" fill="#FF6D00"/>
<path d="M29.1153 69.5476C28.8758 70.2602 28.5164 70.7987 28.0371 71.163C27.5518 71.5154 26.9986 71.7161 26.3774 71.7651C25.7474 71.8111 25.0983 71.7219 24.4302 71.4974C23.7265 71.2609 23.1449 70.9266 22.6854 70.4946C22.2169 70.0596 21.9091 69.5448 21.762 68.9501C21.6149 68.3554 21.6641 67.6929 21.9095 66.9624C21.9934 66.713 22.1069 66.4786 22.25 66.259C22.3873 66.0276 22.5483 65.8289 22.7329 65.6629C22.9116 65.485 23.1155 65.3503 23.3446 65.2588L20.2715 64.226L20.9001 62.3555L30.3598 65.5345L29.7492 67.3517L28.9519 67.1135C29.1029 67.3426 29.2063 67.5955 29.262 67.872C29.3119 68.1366 29.3246 68.4085 29.3001 68.6878C29.2757 68.967 29.2141 69.2537 29.1153 69.5476ZM27.5575 68.6077C27.6922 68.2069 27.7079 67.8503 27.6047 67.5381C27.5045 67.2169 27.3283 66.9445 27.0763 66.7211C26.8242 66.4976 26.529 66.3289 26.1905 66.2152C25.8431 66.0985 25.5059 66.0545 25.179 66.0834C24.8461 66.1005 24.5517 66.2097 24.2956 66.4111C24.0336 66.6007 23.8338 66.9003 23.6961 67.3101C23.5584 67.7198 23.5412 68.0808 23.6444 68.3931C23.7477 68.7053 23.9327 68.9658 24.1997 69.1745C24.4607 69.3713 24.7604 69.5265 25.0989 69.6403C25.3483 69.7241 25.5978 69.7782 25.8474 69.8026C26.091 69.8151 26.3244 69.7844 26.5474 69.7107C26.7705 69.6369 26.9714 69.5111 27.1501 69.3333C27.3199 69.1524 27.4557 68.9106 27.5575 68.6077Z" fill="#FF6D00"/>
<path d="M34.9622 56.7175C34.6098 57.317 34.1881 57.8213 33.6971 58.2302C33.2108 58.6311 32.6627 58.8867 32.0529 58.997C31.4479 59.0992 30.7991 59.0068 30.1067 58.7197L31.1495 56.9455C31.4678 57.0345 31.7691 57.0318 32.0535 56.9373C32.3298 56.8381 32.583 56.6763 32.8131 56.4518C33.0478 56.2192 33.2533 55.953 33.4295 55.6532C33.5628 55.4264 33.6654 55.1869 33.7373 54.9349C33.8091 54.6828 33.8166 54.4474 33.7599 54.2288C33.7078 54.002 33.5644 53.8196 33.3294 53.6815C33.1512 53.5768 32.9815 53.5316 32.8205 53.5459C32.6642 53.5522 32.5108 53.6092 32.3603 53.7169C32.2065 53.8118 32.0417 53.9438 31.8659 54.113C31.7173 54.2546 31.5721 54.409 31.4302 54.5763C31.293 54.7355 31.1477 54.8899 30.9944 55.0396C30.8458 55.1811 30.6915 55.3139 30.5314 55.4378C30.2695 55.698 29.9985 55.9366 29.7184 56.1535C29.4302 56.3656 29.1328 56.5287 28.826 56.6427C28.5111 56.7519 28.1778 56.7904 27.8262 56.7581C27.4793 56.7178 27.1115 56.5833 26.7226 56.3548C26.3013 56.1072 25.9853 55.8288 25.7746 55.5197C25.5687 55.2024 25.4416 54.8716 25.3933 54.5271C25.3417 54.1698 25.349 53.8144 25.4151 53.4608C25.4859 53.0992 25.5892 52.7566 25.7248 52.433C25.8605 52.1095 26.0069 51.814 26.164 51.5467C26.4926 50.9877 26.885 50.5425 27.3413 50.2112C27.7976 49.8799 28.3035 49.6867 28.859 49.6317C29.4145 49.5767 29.9999 49.7028 30.6151 50.0098L29.6224 51.699C29.3603 51.5886 29.1094 51.561 28.8698 51.6164C28.6302 51.6717 28.4072 51.7914 28.201 51.9754C27.9995 52.1513 27.8178 52.377 27.656 52.6524C27.5512 52.8306 27.465 53.0143 27.3975 53.2035C27.3299 53.3927 27.2921 53.5776 27.284 53.7581C27.2727 53.9259 27.2999 54.0835 27.3657 54.2312C27.4363 54.3708 27.5526 54.4882 27.7146 54.5834C27.8766 54.6786 28.0446 54.7174 28.2185 54.6997C28.3843 54.6773 28.5617 54.6072 28.7508 54.4894C28.9366 54.3588 29.135 54.1974 29.346 54.0053C29.5698 53.8099 29.7846 53.5928 29.9903 53.354C30.1961 53.1153 30.4109 52.8981 30.6347 52.7027C30.8967 52.4425 31.1629 52.212 31.4335 52.0113C31.6959 51.8059 31.9717 51.6519 32.2609 51.5493C32.5419 51.442 32.8454 51.4078 33.1713 51.4468C33.4891 51.481 33.8344 51.6076 34.207 51.8266C34.7012 52.117 35.0677 52.4578 35.3066 52.8489C35.5421 53.2271 35.6723 53.6361 35.6973 54.0758C35.727 54.5075 35.6738 54.9503 35.5377 55.4044C35.4016 55.8585 35.2098 56.2962 34.9622 56.7175Z" fill="#FF6D00"/>
<path d="M39.9067 49.5153C39.229 50.369 38.4889 50.8553 37.6866 50.9743C36.8828 51.08 36.0393 50.7822 35.1561 50.0811L31.8994 47.4958L33.1264 45.9501L36.2727 48.448C36.5376 48.6584 36.8024 48.8085 37.0669 48.8985C37.3299 48.9753 37.5845 48.9794 37.8308 48.911C38.0829 48.8352 38.3142 48.6648 38.5245 48.3999C38.7524 48.1128 38.8651 47.8424 38.8627 47.5885C38.8603 47.3346 38.7794 47.0964 38.6201 46.8739C38.4534 46.6456 38.2523 46.4381 38.0167 46.2511L34.8704 43.7533L36.0887 42.2188L39.3454 44.8041C40.2653 45.5345 40.751 46.298 40.8024 47.0947C40.8597 47.8841 40.5611 48.691 39.9067 49.5153Z" fill="#FF6D00"/>
<path d="M45.1743 47.3437L38.1143 39.9747L39.4477 38.6973L40.1625 39.3008C40.1261 38.8281 40.1885 38.3975 40.3497 38.0088C40.5176 37.6136 40.7713 37.2535 41.1105 36.9284C41.6398 36.4214 42.1945 36.1242 42.7746 36.0369C43.3547 35.9497 43.931 36.0351 44.5037 36.2933C45.0767 36.5382 45.6102 36.9185 46.1043 37.4341C46.6114 37.9634 46.9748 38.5262 47.1947 39.1224C47.4148 39.7053 47.4621 40.2912 47.3365 40.88C47.2044 41.462 46.8703 42.0099 46.3343 42.5234C46.1036 42.7445 45.8604 42.9253 45.6049 43.0661C45.3493 43.2068 45.1012 43.3079 44.8607 43.3692C44.6136 43.4237 44.3805 43.4453 44.1614 43.434L46.5993 45.9785L45.1743 47.3437ZM44.8613 41.475C45.1803 41.1695 45.3631 40.8577 45.4097 40.5397C45.4564 40.2217 45.4131 39.9183 45.2797 39.6297C45.1398 39.3343 44.9561 39.0678 44.7286 38.8303C44.4815 38.5725 44.2068 38.3672 43.9043 38.2145C43.6019 38.0618 43.2906 38.0086 42.9706 38.0549C42.6509 38.088 42.3316 38.2572 42.0127 38.5628C41.7277 38.8358 41.555 39.1379 41.4948 39.4689C41.428 39.7931 41.451 40.1159 41.5638 40.4374C41.6765 40.7588 41.8564 41.0485 42.1035 41.3063C42.3505 41.5641 42.6288 41.7595 42.9383 41.8924C43.2546 42.0188 43.5762 42.0556 43.903 42.0028C44.2365 41.9435 44.556 41.7676 44.8613 41.475Z" fill="#FF6D00"/>
<path d="M51.4855 41.4477L45.5088 33.1759L47.0055 32.0945L47.6303 32.7907C47.6594 32.3176 47.7806 31.8996 47.9938 31.5369C48.2146 31.1686 48.5155 30.8469 48.8963 30.5717C49.4904 30.1425 50.0808 29.9246 50.6673 29.9181C51.2539 29.9117 51.813 30.0758 52.3447 30.4104C52.8784 30.7319 53.3544 31.1821 53.7727 31.761C54.202 32.3551 54.4844 32.9626 54.6199 33.5834C54.7576 34.1912 54.7237 34.778 54.5181 35.3439C54.307 35.9021 53.9006 36.3986 53.2989 36.8334C53.0399 37.0205 52.7742 37.1662 52.5016 37.2703C52.2291 37.3745 51.9695 37.4404 51.7228 37.4679C51.4705 37.4879 51.2367 37.4771 51.0213 37.4357L53.0851 40.292L51.4855 41.4477ZM51.9845 35.592C52.3425 35.3333 52.5666 35.0497 52.6566 34.7412C52.7467 34.4326 52.7456 34.1262 52.6533 33.8219C52.5555 33.51 52.4102 33.2208 52.2176 32.9542C52.0085 32.6648 51.7646 32.4236 51.4861 32.2306C51.2076 32.0377 50.9067 31.9421 50.5833 31.9439C50.2621 31.9325 49.9225 32.0562 49.5645 32.3148C49.2446 32.546 49.032 32.8213 48.9267 33.1409C48.8159 33.4528 48.7941 33.7758 48.8615 34.1097C48.9289 34.4436 49.0671 34.7552 49.2762 35.0447C49.4854 35.3341 49.7341 35.566 50.0223 35.7403C50.3182 35.9091 50.6316 35.9899 50.9625 35.9826C51.3011 35.9698 51.6418 35.8396 51.9845 35.592Z" fill="#FF6D00"/>
<path d="M60.348 32.4947C59.6842 32.8474 59.0327 33.0232 58.3937 33.0222C57.7503 33.0128 57.1594 32.832 56.621 32.4795C56.0783 32.1188 55.6239 31.5941 55.258 30.9053C54.8832 30.1999 54.6983 29.5213 54.7032 28.8696C54.7121 28.2052 54.8927 27.6038 55.2451 27.0655C55.5975 26.5271 56.0974 26.086 56.7447 25.7421C57.4086 25.3894 58.0603 25.224 58.6998 25.2461C59.3393 25.2681 59.9305 25.4595 60.4732 25.8202C61.016 26.181 61.4748 26.714 61.8495 27.4194C62.2155 28.1082 62.396 28.7784 62.391 29.4301C62.39 30.0691 62.2152 30.6515 61.8667 31.1771C61.5264 31.6984 61.0202 32.1376 60.348 32.4947ZM59.4767 30.9146C59.8584 30.7118 60.1214 30.4657 60.2656 30.1762C60.4097 29.8868 60.4611 29.5829 60.4196 29.2644C60.382 28.9333 60.2838 28.6183 60.1251 28.3196C59.9664 28.0208 59.7604 27.7632 59.507 27.5466C59.2619 27.3257 58.9769 27.1898 58.652 27.139C58.3309 27.0754 57.9754 27.1473 57.5853 27.3545C57.2119 27.5529 56.9575 27.8051 56.8221 28.1111C56.6823 28.4088 56.6313 28.7232 56.6689 29.0544C56.7148 29.3812 56.8171 29.6939 56.9758 29.9927C57.1389 30.2997 57.3408 30.5596 57.5815 30.7722C57.8304 30.9805 58.1152 31.1058 58.4357 31.1484C58.7562 31.1909 59.1032 31.113 59.4767 30.9146Z" fill="#FF6D00"/>
<path d="M65.0758 30.0824L62.3545 23.1705L64.0071 22.5199L64.4504 23.2997C64.522 22.9685 64.6413 22.6943 64.8083 22.4771C64.9718 22.2511 65.163 22.0698 65.3819 21.9332C65.5973 21.7878 65.8274 21.6669 66.0722 21.5705C66.1859 21.5257 66.2926 21.4888 66.3922 21.4597C66.4884 21.4218 66.5583 21.3942 66.602 21.377L67.2991 23.1476L66.8663 23.318C66.4554 23.4798 66.1244 23.6909 65.8734 23.9513C65.6225 24.2117 65.4725 24.5232 65.4234 24.8859C65.383 25.2452 65.4541 25.6565 65.6365 26.1199L66.912 29.3595L65.0758 30.0824Z" fill="#FF6D00"/>
<path d="M73.6754 27.0925C73.0816 27.2717 72.5606 27.3504 72.1123 27.3285C71.673 27.304 71.2984 27.152 70.9883 26.8726C70.6845 26.5815 70.4417 26.1345 70.2599 25.5317L69.3398 22.4819L68.2872 22.7995L67.7783 21.1126L68.8308 20.7951L68.2568 18.8923L70.1461 18.3223L70.7201 20.2251L72.272 19.7569L72.7809 21.4437L71.229 21.9119L72.0677 24.6919C72.1573 24.9887 72.2818 25.2064 72.4414 25.3447C72.6009 25.4831 72.8696 25.4953 73.2474 25.3813L73.8412 25.2021L74.3501 26.889L73.6754 27.0925Z" fill="#FF6D00"/>
<path d="M80.2114 20.0522L78.7518 19.2537L79.5644 18.1057L78.1572 18.0113L78.4487 16.3789L79.7994 16.7938L79.4444 15.4335L81.1074 15.209L81.1264 16.6145L82.3044 15.858L83.0324 17.3526L81.7014 17.8169L82.7744 18.7102L81.5794 19.8673L80.7454 18.7426L80.2114 20.0522Z" fill="#FF6D00"/>
</g>
<defs>
<filter id="filter0_d_361_755" x="-20.0488" y="-20" width="220" height="220" filterUnits="userSpaceOnUse" color-interpolation-filters="sRGB">
<feFlood flood-opacity="0" result="BackgroundImageFix"/>
<feColorMatrix in="SourceAlpha" type="matrix" values="0 0 0 0 0 0 0 0 0 0 0 0 0 0 0 0 0 0 127 0" result="hardAlpha"/>
<feOffset/>
<feGaussianBlur stdDeviation="10"/>
<feComposite in2="hardAlpha" operator="out"/>
<feColorMatrix type="matrix" values="0 0 0 0 0 0 0 0 0 0 0 0 0 0 0 0 0 0 0.05 0"/>
<feBlend mode="normal" in2="BackgroundImageFix" result="effect1_dropShadow_361_755"/>
<feBlend mode="normal" in="SourceGraphic" in2="effect1_dropShadow_361_755" result="shape"/>
</filter>
<clipPath id="clip0_361_755">
<rect width="180" height="180" fill="white"/>
</clipPath>
</defs>
</svg>
