<svg width="50" height="50" viewBox="0 0 50 50" fill="none" xmlns="http://www.w3.org/2000/svg">
<path d="M38.6385 46.8335C38.49 46.8334 38.3457 46.7845 38.2279 46.6943C38.11 46.604 38.0252 46.4775 37.9864 46.3342L36.2567 39.9429C36.2252 39.8263 36.2254 39.7034 36.2575 39.587C36.2896 39.4705 36.3523 39.3648 36.4391 39.2808L43.7479 32.2132C44.6774 31.3127 45.2838 30.1306 45.4729 28.8504L47.2087 16.8673C46.6513 16.8228 46.0953 16.9696 45.6324 17.2834C45.1695 17.5972 44.8273 18.0593 44.6621 18.5936L41.7966 27.7619C41.758 27.8853 41.6848 27.995 41.5858 28.0781L34.9459 33.6423C34.8781 33.7011 34.7993 33.7458 34.7141 33.7739C34.6289 33.8019 34.5389 33.8127 34.4494 33.8056C34.36 33.7985 34.2728 33.7736 34.1931 33.7325C34.1133 33.6913 34.0426 33.6347 33.985 33.5659C33.9273 33.4971 33.884 33.4175 33.8575 33.3318C33.8309 33.2461 33.8218 33.1559 33.8304 33.0666C33.8391 32.9773 33.8655 32.8906 33.9081 32.8116C33.9507 32.7326 34.0085 32.6629 34.0783 32.6065L40.5648 27.1693L43.3723 18.1902C43.6401 17.3293 44.204 16.5909 44.964 16.1057C45.7241 15.6206 46.6312 15.42 47.525 15.5396L48.0655 15.6112C48.1541 15.623 48.2396 15.6522 48.3168 15.6972C48.3941 15.7423 48.4616 15.8022 48.5156 15.8735C48.5695 15.9449 48.6087 16.0262 48.631 16.1128C48.6532 16.1994 48.6581 16.2896 48.6452 16.3781L46.8067 29.0423C46.5757 30.6189 45.8306 32.0751 44.6871 33.1848L37.6655 39.9747L39.2912 45.9808C39.3382 46.1534 39.3148 46.3377 39.2261 46.4931C39.1375 46.6485 38.9908 46.7624 38.8182 46.8098C38.7596 46.8255 38.6992 46.8334 38.6385 46.8335Z" fill="#020D19"/>
<path d="M30.023 46.8333C29.8438 46.8333 29.672 46.7621 29.5453 46.6354C29.4185 46.5087 29.3474 46.3369 29.3474 46.1577V41.7408C28.5494 40.978 27.949 40.0326 27.598 38.986C27.0956 37.4158 27.1075 35.7262 27.632 34.1632C28.1566 32.6002 29.1663 31.2454 30.5142 30.2962L35.7501 26.5245C36.6351 25.8897 37.7205 25.5976 38.8046 25.7026C39.8887 25.8076 40.8979 26.3026 41.6446 27.0955C41.7054 27.1602 41.7528 27.2363 41.7841 27.3193C41.8155 27.4024 41.8301 27.4908 41.8273 27.5795C41.8245 27.6682 41.8042 27.7555 41.7677 27.8364C41.7311 27.9173 41.679 27.9902 41.6142 28.0509C41.5495 28.1116 41.4735 28.159 41.3904 28.1904C41.3074 28.2217 41.219 28.2364 41.1302 28.2336C41.0415 28.2307 40.9542 28.2105 40.8734 28.1739C40.7925 28.1374 40.7196 28.0852 40.6588 28.0205C40.1371 27.4655 39.4314 27.119 38.6731 27.0455C37.9149 26.9721 37.1558 27.1767 36.5372 27.6212L31.3041 31.3955C30.1905 32.1741 29.3544 33.2879 28.9178 34.5746C28.4811 35.8614 28.4666 37.254 28.8764 38.5495C29.184 39.4713 29.7328 40.2939 30.4656 40.932C30.5387 40.9954 30.5974 41.0737 30.6376 41.1617C30.6778 41.2497 30.6986 41.3454 30.6987 41.4421V46.1577C30.6987 46.3369 30.6275 46.5087 30.5008 46.6354C30.3741 46.7621 30.2022 46.8333 30.023 46.8333Z" fill="#020D19"/>
<path d="M38.4953 26.9155C38.4242 26.9154 38.3535 26.9042 38.2858 26.8824C38.2014 26.8549 38.1231 26.8111 38.0556 26.7533C37.9881 26.6956 37.9327 26.6251 37.8925 26.5459C37.8522 26.4667 37.828 26.3803 37.8212 26.2918C37.8144 26.2032 37.8251 26.1141 37.8527 26.0297L39.8298 19.975C40.1212 19.0761 40.7488 18.3245 41.5813 17.8774C42.4139 17.4303 43.387 17.3222 44.2973 17.5757C44.4701 17.6234 44.6168 17.7378 44.7052 17.8938C44.7935 18.0497 44.8164 18.2343 44.7686 18.4071C44.7209 18.5798 44.6064 18.7265 44.4505 18.8149C44.2946 18.9033 44.1099 18.9261 43.9372 18.8784C43.362 18.7189 42.7475 18.7876 42.2217 19.07C41.696 19.3525 41.2995 19.827 41.1149 20.3946L39.1379 26.45C39.0935 26.5854 39.0075 26.7034 38.8921 26.787C38.7767 26.8706 38.6378 26.9156 38.4953 26.9155Z" fill="#020D19"/>
<path d="M11.3615 46.8352C11.3017 46.8349 11.2422 46.8269 11.1844 46.8115C11.0119 46.7641 10.8652 46.6502 10.7765 46.4948C10.6879 46.3394 10.6645 46.1551 10.7115 45.9825L12.3371 39.9764L5.31282 33.1865C4.16918 32.0766 3.42407 30.6201 3.19322 29.0433L1.35809 16.3804C1.34524 16.2919 1.35008 16.2018 1.37234 16.1152C1.3946 16.0286 1.43383 15.9472 1.48775 15.8759C1.54168 15.8046 1.60923 15.7446 1.68648 15.6996C1.76374 15.6546 1.84917 15.6253 1.93782 15.6136L2.47836 15.5419C3.37192 15.4216 4.27921 15.6218 5.03919 16.1069C5.79917 16.592 6.36269 17.3308 6.62971 18.1919L9.43714 27.171L15.9236 32.6081C15.9934 32.6645 16.0513 32.7343 16.0939 32.8133C16.1364 32.8923 16.1628 32.979 16.1715 33.0683C16.1802 33.1576 16.171 33.2478 16.1445 33.3335C16.118 33.4192 16.0746 33.4988 16.017 33.5676C15.9594 33.6364 15.8886 33.693 15.8089 33.7342C15.7291 33.7753 15.642 33.8002 15.5525 33.8073C15.4631 33.8144 15.3731 33.8036 15.2879 33.7756C15.2026 33.7475 15.1238 33.7028 15.0561 33.644L8.4162 28.0798C8.31712 27.9967 8.24395 27.887 8.20538 27.7636L5.33782 18.5953C5.17225 18.0621 4.83069 17.6008 4.36897 17.2868C3.90725 16.9729 3.35268 16.8248 2.79592 16.8669L4.53038 28.8521C4.71818 30.1326 5.32335 31.3154 6.25201 32.2169L13.5608 39.2825C13.6476 39.3665 13.7103 39.4722 13.7424 39.5886C13.7745 39.7051 13.7748 39.828 13.7432 39.9446L12.0135 46.3358C11.9748 46.4791 11.8899 46.6057 11.772 46.6959C11.6542 46.7862 11.5099 46.8351 11.3615 46.8352Z" fill="#020D19"/>
<path d="M19.977 46.8348C19.7978 46.8348 19.626 46.7636 19.4992 46.6369C19.3725 46.5101 19.3013 46.3383 19.3013 46.1591V41.4435C19.3014 41.3468 19.3222 41.2512 19.3625 41.1631C19.4027 41.0751 19.4613 40.9968 19.5344 40.9334C20.2673 40.2953 20.816 39.4727 21.1236 38.551C21.5334 37.2554 21.5189 35.8628 21.0823 34.5761C20.6456 33.2893 19.8096 32.1755 18.6959 31.3969L13.4601 27.6253C12.8415 27.1808 12.0824 26.9762 11.3242 27.0497C10.566 27.1231 9.86028 27.4696 9.3385 28.0246C9.21584 28.1553 9.04627 28.232 8.86709 28.2377C8.68792 28.2434 8.51382 28.1777 8.38309 28.055C8.25237 27.9324 8.17572 27.7628 8.17002 27.5836C8.16432 27.4044 8.23003 27.2303 8.35269 27.0996C9.09935 26.3065 10.1085 25.8115 11.1927 25.7065C12.2769 25.6015 13.3623 25.8936 14.2473 26.5287L19.4831 30.3003C20.831 31.249 21.8409 32.6032 22.3659 34.1656C22.8909 35.7281 22.9035 37.4173 22.402 38.9875C22.0506 40.0331 21.4503 40.9775 20.6527 41.7395V46.1564C20.653 46.2453 20.6358 46.3335 20.602 46.4158C20.5682 46.4981 20.5185 46.5729 20.4557 46.6359C20.393 46.6989 20.3184 46.7489 20.2362 46.7831C20.1541 46.8172 20.066 46.8348 19.977 46.8348Z" fill="#020D19"/>
<path d="M11.5048 26.9151C11.3623 26.9152 11.2234 26.8702 11.108 26.7866C10.9925 26.703 10.9065 26.585 10.8622 26.4495L8.88518 20.3941C8.70047 19.8266 8.30395 19.3523 7.77821 19.0698C7.25247 18.7874 6.63804 18.7186 6.06288 18.8779C5.89013 18.9257 5.70549 18.9029 5.54957 18.8145C5.39365 18.7261 5.27922 18.5794 5.23146 18.4066C5.18371 18.2339 5.20653 18.0492 5.29491 17.8933C5.3833 17.7374 5.53 17.623 5.70275 17.5752C6.61311 17.3223 7.58599 17.4306 8.41839 17.8777C9.25079 18.3247 9.87842 19.0759 10.1703 19.9745L12.1473 26.0293C12.175 26.1137 12.1857 26.2027 12.1789 26.2913C12.1721 26.3799 12.1478 26.4662 12.1076 26.5454C12.0674 26.6246 12.0119 26.6951 11.9444 26.7529C11.8769 26.8106 11.7987 26.8545 11.7142 26.882C11.6465 26.9038 11.5759 26.9149 11.5048 26.9151Z" fill="#020D19"/>
<path d="M25 28.3209C24.8657 28.3209 24.7344 28.281 24.623 28.2061C24.1047 27.8574 11.927 19.5675 11.927 10.7838C11.9262 9.26838 12.3776 7.78722 13.2234 6.52987C14.0692 5.27253 15.2711 4.2962 16.675 3.72585C18.079 3.1555 19.6212 3.01709 21.1042 3.32833C22.5873 3.63957 23.9438 4.3863 25 5.47294C26.0562 4.3863 27.4126 3.63957 28.8957 3.32833C30.3788 3.01709 31.921 3.1555 33.325 3.72585C34.7289 4.2962 35.9307 5.27253 36.7766 6.52987C37.6224 7.78722 38.0738 9.26838 38.0729 10.7838C38.0729 19.5675 25.8952 27.8574 25.377 28.2061C25.2655 28.281 25.1343 28.3209 25 28.3209ZM19.5452 4.51754C17.8838 4.51915 16.2908 5.17983 15.1159 6.35461C13.941 7.52938 13.2801 9.12228 13.2784 10.7838C13.2784 18.0405 22.952 25.3527 25 26.8196C27.0479 25.3513 36.7216 18.0311 36.7216 10.7838C36.7226 9.48053 36.3168 8.20947 35.561 7.1478C34.8052 6.08612 33.737 5.28673 32.5052 4.86107C31.2735 4.43541 29.9396 4.4047 28.6896 4.77321C27.4395 5.14172 26.3356 5.8911 25.5317 6.91686C25.466 6.99352 25.3844 7.05506 25.2926 7.09724C25.2008 7.13943 25.101 7.16127 25 7.16127C24.899 7.16127 24.7991 7.13943 24.7074 7.09724C24.6156 7.05506 24.534 6.99352 24.4682 6.91686C23.8849 6.16807 23.138 5.5626 22.2848 5.14674C21.4315 4.73089 20.4944 4.51567 19.5452 4.51754Z" fill="#020D19"/>
</svg>
