<svg width="44" height="44" viewBox="0 0 44 44" fill="none" xmlns="http://www.w3.org/2000/svg">
<mask id="path-1-outside-1_519_20" maskUnits="userSpaceOnUse" x="2" y="2.95312" width="41" height="39" fill="black">
<rect fill="white" x="2" y="2.95312" width="41" height="39"/>
<path d="M17.2 38.3531L7.7 31.3531L14.5 24.0531L4.7 22.0531L8.3 10.8531L17.4 15.0531L16.2 5.15312H28.1L26.9 15.0531L35.9 10.8531L39.6 22.0531L29.8 24.0531L36.5 31.3531L27 38.3531L22.2 29.6531L17.2 38.3531Z"/>
</mask>
<path d="M17.2 38.3531L16.0136 39.9632L17.8175 41.2924L18.934 39.3497L17.2 38.3531ZM7.7 31.3531L6.23656 29.9899L4.70694 31.632L6.5136 32.9632L7.7 31.3531ZM14.5 24.0531L15.9634 25.4163L18.3944 22.8067L14.8999 22.0935L14.5 24.0531ZM4.7 22.0531L2.79594 21.4411L2.11283 23.5664L4.30008 24.0127L4.7 22.0531ZM8.3 10.8531L9.13812 9.03721L7.08717 8.09062L6.39594 10.2411L8.3 10.8531ZM17.4 15.0531L16.5619 16.869L19.8168 18.3713L19.3855 14.8125L17.4 15.0531ZM16.2 5.15312V3.15312H13.9429L14.2145 5.39378L16.2 5.15312ZM28.1 5.15312L30.0855 5.39378L30.3571 3.15312H28.1V5.15312ZM26.9 15.0531L24.9145 14.8125L24.481 18.389L27.7458 16.8655L26.9 15.0531ZM35.9 10.8531L37.7991 10.2258L37.0932 8.08922L35.0542 9.04076L35.9 10.8531ZM39.6 22.0531L39.9999 24.0127L42.205 23.5627L41.4991 21.4258L39.6 22.0531ZM29.8 24.0531L29.4001 22.0935L25.9357 22.8005L28.3265 25.4055L29.8 24.0531ZM36.5 31.3531L37.6864 32.9632L39.4797 31.6419L37.9735 30.0008L36.5 31.3531ZM27 38.3531L25.2488 39.3193L26.3505 41.316L28.1864 39.9632L27 38.3531ZM22.2 29.6531L23.9512 28.687L22.2356 25.5775L20.466 28.6566L22.2 29.6531ZM18.3864 36.743L8.8864 29.743L6.5136 32.9632L16.0136 39.9632L18.3864 36.743ZM9.16344 32.7163L15.9634 25.4163L13.0366 22.6899L6.23656 29.9899L9.16344 32.7163ZM14.8999 22.0935L5.09992 20.0935L4.30008 24.0127L14.1001 26.0127L14.8999 22.0935ZM6.60406 22.6651L10.2041 11.4651L6.39594 10.2411L2.79594 21.4411L6.60406 22.6651ZM7.46188 12.669L16.5619 16.869L18.2381 13.2372L9.13812 9.03721L7.46188 12.669ZM19.3855 14.8125L18.1855 4.91246L14.2145 5.39378L15.4145 15.2938L19.3855 14.8125ZM16.2 7.15312H28.1V3.15312H16.2V7.15312ZM26.1145 4.91246L24.9145 14.8125L28.8855 15.2938L30.0855 5.39378L26.1145 4.91246ZM27.7458 16.8655L36.7458 12.6655L35.0542 9.04076L26.0542 13.2408L27.7458 16.8655ZM34.0009 11.4805L37.7009 22.6805L41.4991 21.4258L37.7991 10.2258L34.0009 11.4805ZM39.2001 20.0935L29.4001 22.0935L30.1999 26.0127L39.9999 24.0127L39.2001 20.0935ZM28.3265 25.4055L35.0265 32.7055L37.9735 30.0008L31.2735 22.7008L28.3265 25.4055ZM35.3136 29.743L25.8136 36.743L28.1864 39.9632L37.6864 32.9632L35.3136 29.743ZM28.7512 37.387L23.9512 28.687L20.4488 30.6193L25.2488 39.3193L28.7512 37.387ZM20.466 28.6566L15.466 37.3566L18.934 39.3497L23.934 30.6497L20.466 28.6566Z" fill="#FF6D00" mask="url(#path-1-outside-1_519_20)"/>
</svg>
